<svg xmlns="http://www.w3.org/2000/svg" viewBox="0 0 135.46667 135.46668" width="135.46667" height="135.46668">
  <g transform="translate(255.60477,-19.034522)">
    <g transform="matrix(0.53845513,0,0,0.53845513,-260.51955,13.25883)">
      <path style="fill:#333333;" d="m 131.35535,193.41317 c -8.42529,0.21555 -17.07195,1.23898 -24.70899,5.03516 -6.56852,3.28887 -11.780948,9.56904 -13.037575,16.89416 -1.12503,5.50318 -0.847502,11.50687 1.819693,16.54193 2.619641,4.74577 7.282642,8.08459 12.343352,9.82958 7.20278,2.70364 14.97875,3.20323 22.59699,3.46523 7.89843,0.20478 15.85819,-0.17121 23.61105,-1.76836 5.63625,-1.25422 11.31076,-3.51115 15.35105,-7.77992 3.29144,-3.52234 5.05422,-8.32066 5.11255,-13.1185 0.31661,-6.70741 -1.69285,-13.72981 -6.39837,-18.65616 -4.18578,-4.5464 -10.04779,-7.11576 -15.95626,-8.569 -6.77112,-1.66654 -13.79057,-1.92415 -20.73349,-1.87412 z"/>
      <path style="fill:#333333;" d="m 98.902224,36.772549 c -6.995893,0.126233 -13.62619,4.553849 -16.638172,10.834978 -3.470673,6.368967 -4.476788,13.68672 -5.225527,20.799337 -1.546324,15.903589 -0.51861,31.905986 -1.354082,47.842876 -0.544064,12.91133 -1.490643,25.96714 0.724426,38.77934 1.594594,9.15149 5.382372,18.1514 11.945332,24.8552 5.649973,5.83947 12.892719,10.17523 20.761639,12.23377 4.29395,0.94959 9.28733,-0.57303 11.73776,-4.36606 2.38164,-3.59662 2.34796,-8.32076 0.82613,-12.24486 -1.20789,-3.11502 -2.64307,-6.14315 -3.64842,-9.33584 -1.12185,-3.39459 -1.94228,-6.99797 -2.3869,-10.47882 -0.55748,-4.05967 -0.49766,-8.22945 -0.15435,-12.24032 0.58298,-6.27022 1.46357,-12.5645 3.39036,-18.57849 0.79153,-2.26867 1.52928,-4.64049 3.02766,-6.55814 5.54574,0.77098 10.63142,3.47347 15.10865,6.73077 1.80507,1.34294 3.49258,2.79574 5.00233,4.33482 4.14952,4.21383 7.69916,9.25861 9.14438,15.0671 1.23316,4.77068 1.46924,9.85005 0.41871,14.67703 -1.02032,4.50982 -3.25363,8.60065 -5.45452,12.62181 -1.87577,3.646 -3.05511,7.8744 -2.17051,11.96837 0.96209,4.20638 4.82507,7.5927 9.1658,7.8093 4.52117,0.38592 8.79301,-1.6188 12.64582,-3.75368 9.91038,-5.51624 17.57193,-14.7796 21.44242,-25.41236 3.56981,-9.82442 4.74142,-20.45137 3.89537,-30.84701 -1.23706,-11.29301 -6.03879,-21.87272 -12.00583,-31.42104 -8.7119,-13.884894 -20.08721,-25.908588 -32.38582,-36.666079 -9.92644,-8.582365 -20.62052,-16.394651 -32.3549,-22.32888 -4.66406,-2.261816 -9.65523,-4.278849 -14.913576,-4.33312 -0.18139,0.0033 -0.36279,0.0067 -0.54418,0.01 z"/>
      <path style="fill:#1a1a1a;" d="m 101.5994,42.333286 c -16.933333,0 -16.932775,25.399703 -16.932775,59.266364 0,22.1978 -4.232652,46.56706 4.234014,63.50039 5.220015,10.44003 13.972061,15.73851 21.271621,18.42328 6.6812,2.45734 9.17536,-1.99454 6.19624,-8.47458 -3.15884,-6.87095 -6.30107,-16.35175 -6.30107,-26.88148 0,-13.2144 4.23211,-38.10121 12.69877,-38.10122 6.05784,-1e-5 16.93414,4.23374 25.40081,12.70041 8.46667,8.46667 12.7004,16.93318 12.7004,29.63318 0,7.08928 -2.7934,14.00656 -6.11107,19.72215 -4.93785,8.50679 -2.47873,14.0338 6.39934,9.88974 11.71936,-5.47031 25.1109,-17.97258 25.1109,-46.54467 0,-42.33333 -67.73384,-93.133564 -84.66718,-93.133564 z m 33.8672,156.633944 c -25.4,0 -33.8672,8.4668 -33.8672,21.1668 0,8.46667 4.23387,16.93278 33.8672,16.93278 29.63333,0 33.8672,-8.46611 33.8672,-16.93278 0,-12.7 -8.4672,-21.1668 -33.8672,-21.1668 z"/>
    </g>
  </g>
</svg>
