<?xml version="1.0" encoding="UTF-8" standalone="no"?>
<svg
   width="141.27856"
   height="251.11052"
   viewBox="0 0 63.795122 113.39036"
   version="1.1"
   id="svg1"
   sodipodi:docname="niri.svg"
   inkscape:version="1.4.2 (ebf0e940d0, 2025-05-08)"
   xmlns:inkscape="http://www.inkscape.org/namespaces/inkscape"
   xmlns:sodipodi="http://sodipodi.sourceforge.net/DTD/sodipodi-0.dtd"
   xmlns="http://www.w3.org/2000/svg"
   xmlns:svg="http://www.w3.org/2000/svg">
  <sodipodi:namedview
     id="namedview1"
     borderopacity="1"
     inkscape:showpageshadow="0"
     inkscape:pageopacity="0"
     inkscape:pagecheckerboard="1"
     inkscape:zoom="1.5347643"
     inkscape:cx="193.84084"
     inkscape:cy="116.95607"
     inkscape:window-width="1653"
     inkscape:window-height="1048"
     inkscape:window-x="0"
     inkscape:window-y="0"
     inkscape:window-maximized="0"
     inkscape:current-layer="g71"
     pagecolor="#505050"
     bordercolor="#ffffff"
     inkscape:deskcolor="#505050">
    <inkscape:page
       x="0"
       y="0"
       width="63.79512"
       height="113.39036"
       id="page1"
       margin="0"
       bleed="0" />
  </sodipodi:namedview>
  <defs
     id="defs1">
    <linearGradient
       id="swatch7"
       inkscape:swatch="solid">
      <stop
         style="stop-color:#000000;stop-opacity:1;"
         offset="0"
         id="stop7" />
    </linearGradient>
    <filter
       style="color-interpolation-filters:sRGB"
       id="filter27"
       x="-0.33198889"
       y="-1.5791052"
       width="1.6639754"
       height="4.1582091">
      <feGaussianBlur
         stdDeviation="8.7093071"
         id="feGaussianBlur26" />
    </filter>
    <filter
       style="color-interpolation-filters:sRGB"
       id="filter60"
       x="-0.54860413"
       y="-1.1603501"
       width="2.097208"
       height="3.3207264">
      <feGaussianBlur
         stdDeviation="14.7 5.204"
         id="feGaussianBlur60" />
    </filter>
    <clipPath
       clipPathUnits="userSpaceOnUse"
       id="clipPath34">
      <path
         id="path35"
         style="fill:#bf4040;fill-opacity:1;stroke-width:2.11667;stroke-linecap:square;paint-order:stroke fill markers"
         d="m 169.33334,220.13334 c 0,8.46667 -4.23334,16.93333 -33.86667,16.93333 -29.63333,0 -33.86667,-8.46666 -33.86667,-16.93333 0,-12.7 8.46667,-21.16667 33.86667,-21.16667 25.4,0 33.86667,8.46667 33.86667,21.16667 z" />
    </clipPath>
    <clipPath
       clipPathUnits="userSpaceOnUse"
       id="clipPath35">
      <path
         id="path36"
         style="fill:#bf4040;fill-opacity:1;stroke-width:2.11667;stroke-linecap:square;paint-order:stroke fill markers"
         d="m 715.91343,141.3418 c 0,8.46667 -4.23334,16.93332 -33.86667,16.93332 -29.63333,0 -33.86667,-8.46665 -33.86667,-16.93332 0,-12.7 8.46667,-21.16668 33.86667,-21.16668 25.4,0 33.86667,8.46668 33.86667,21.16668 z" />
    </clipPath>
  </defs>
  <g
     id="layer1"
     transform="translate(220.70101,-32.483895)"
     style="fill:#000000;fill-opacity:1;stroke:#ffffff;stroke-opacity:1">
    <g
       id="g71"
       transform="matrix(0.53845513,0,0,0.53845513,-260.51955,13.25883)"
       inkscape:label="ICON"
       style="fill:#000000;fill-opacity:1;stroke:#ffffff;stroke-opacity:1">
      <g
         id="g4"
         inkscape:label="OUTLINE"
         style="fill:#000000;fill-opacity:1;stroke:#ffffff;stroke-opacity:1">
        <path
           id="path1"
           style="display:inline;fill:#000000;fill-opacity:1;stroke:#ffffff;stroke-width:2.11667;stroke-linecap:square;stroke-opacity:1;paint-order:stroke fill markers"
           d="m 131.35535,193.41317 c -8.42529,0.21555 -17.07195,1.23898 -24.70899,5.03516 -6.56852,3.28887 -11.780948,9.56904 -13.037575,16.89416 -1.12503,5.50318 -0.847502,11.50687 1.819693,16.54193 2.619641,4.74577 7.282642,8.08459 12.343352,9.82958 7.20278,2.70364 14.97875,3.20323 22.59699,3.46523 7.89843,0.20478 15.85819,-0.17121 23.61105,-1.76836 5.63625,-1.25422 11.31076,-3.51115 15.35105,-7.77992 3.29144,-3.52234 5.05422,-8.32066 5.11255,-13.1185 0.31661,-6.70741 -1.69285,-13.72981 -6.39837,-18.65616 -4.18578,-4.5464 -10.04779,-7.11576 -15.95626,-8.569 -6.77112,-1.66654 -13.79057,-1.92415 -20.73349,-1.87412 z" />
        <path
           id="path4"
           style="display:inline;mix-blend-mode:normal;fill:#000000;fill-opacity:1;stroke:#ffffff;stroke-width:2.11667;stroke-linecap:square;stroke-opacity:1;paint-order:stroke fill markers"
           d="m 98.902224,36.772549 c -6.995893,0.126233 -13.62619,4.553849 -16.638172,10.834978 -3.470673,6.368967 -4.476788,13.68672 -5.225527,20.799337 -1.546324,15.903589 -0.51861,31.905986 -1.354082,47.842876 -0.544064,12.91133 -1.490643,25.96714 0.724426,38.77934 1.594594,9.15149 5.382372,18.1514 11.945332,24.8552 5.649973,5.83947 12.892719,10.17523 20.761639,12.23377 4.29395,0.94959 9.28733,-0.57303 11.73776,-4.36606 2.38164,-3.59662 2.34796,-8.32076 0.82613,-12.24486 -1.20789,-3.11502 -2.64307,-6.14315 -3.64842,-9.33584 -1.12185,-3.39459 -1.94228,-6.99797 -2.3869,-10.47882 -0.55748,-4.05967 -0.49766,-8.22945 -0.15435,-12.24032 0.58298,-6.27022 1.46357,-12.5645 3.39036,-18.57849 0.79153,-2.26867 1.52928,-4.64049 3.02766,-6.55814 5.54574,0.77098 10.63142,3.47347 15.10865,6.73077 1.80507,1.34294 3.49258,2.79574 5.00233,4.33482 4.14952,4.21383 7.69916,9.25861 9.14438,15.0671 1.23316,4.77068 1.46924,9.85005 0.41871,14.67703 -1.02032,4.50982 -3.25363,8.60065 -5.45452,12.62181 -1.87577,3.646 -3.05511,7.8744 -2.17051,11.96837 0.96209,4.20638 4.82507,7.5927 9.1658,7.8093 4.52117,0.38592 8.79301,-1.6188 12.64582,-3.75368 9.91038,-5.51624 17.57193,-14.7796 21.44242,-25.41236 3.56981,-9.82442 4.74142,-20.45137 3.89537,-30.84701 -1.23706,-11.29301 -6.03879,-21.87272 -12.00583,-31.42104 -8.7119,-13.884894 -20.08721,-25.908588 -32.38582,-36.666079 -9.92644,-8.582365 -20.62052,-16.394651 -32.3549,-22.32888 -4.66406,-2.261816 -9.65523,-4.278849 -14.913576,-4.33312 -0.18139,0.0033 -0.36279,0.0067 -0.54418,0.01 z" />
      </g>
      <path
         id="path2"
         style="display:inline;fill:#000000;fill-opacity:1;stroke:#ffffff;stroke-width:2.11667;stroke-linecap:square;stroke-opacity:1;paint-order:stroke fill markers"
         d="m 101.5994,42.333286 c -16.933333,0 -16.932775,25.399703 -16.932775,59.266364 0,22.1978 -4.232652,46.56706 4.234014,63.50039 5.220015,10.44003 13.972061,15.73851 21.271621,18.42328 6.6812,2.45734 9.17536,-1.99454 6.19624,-8.47458 -3.15884,-6.87095 -6.30107,-16.35175 -6.30107,-26.88148 0,-13.2144 4.23211,-38.10121 12.69877,-38.10122 6.05784,-1e-5 16.93414,4.23374 25.40081,12.70041 8.46667,8.46667 12.7004,16.93318 12.7004,29.63318 0,7.08928 -2.7934,14.00656 -6.11107,19.72215 -4.93785,8.50679 -2.47873,14.0338 6.39934,9.88974 11.71936,-5.47031 25.1109,-17.97258 25.1109,-46.54467 0,-42.33333 -67.73384,-93.133564 -84.66718,-93.133564 z m 33.8672,156.633944 c -25.4,0 -33.8672,8.4668 -33.8672,21.1668 0,8.46667 4.23387,16.93278 33.8672,16.93278 29.63333,0 33.8672,-8.46611 33.8672,-16.93278 0,-12.7 -8.4672,-21.1668 -33.8672,-21.1668 z" />
      <g
         id="g26"
         clip-path="none"
         style="display:inline;fill:#000000;fill-opacity:1;stroke:#ffffff;stroke-opacity:1"
         inkscape:label="STUB">
        <path
           style="mix-blend-mode:normal;fill:#000000;fill-opacity:1;fill-rule:nonzero;stroke:#ffffff;stroke-width:1.292;stroke-linecap:round;stroke-linejoin:round;stroke-opacity:1;filter:url(#filter27)"
           d="m 649.45734,133.81724 c 0.30861,-0.52382 1.24567,-1.10943 2.25778,-1.9344 0.71834,-0.58551 1.60294,-1.1585 2.689,-1.71704 1.33566,-0.68692 2.82604,-1.27591 4.41873,-1.81477 0.91309,-0.30893 1.90318,-0.61043 2.97552,-0.89949 2.75909,-0.74374 5.93213,-1.36936 9.45117,-1.81993 3.4485,-0.44153 7.02191,-0.68799 10.54487,-0.74159 0.11888,-0.002 0.23758,-0.003 0.35611,-0.005 3.42087,-0.0395 6.87572,0.10105 10.20745,0.42751 3.52675,0.34557 6.72,0.8799 9.50577,1.55294 1.13268,0.27365 2.17777,0.56526 3.14025,0.86932 1.5536,0.49082 3.01719,1.0374 4.3387,1.68661 1.10269,0.54172 2.00605,1.10621 2.74422,1.69041 1.03948,0.82267 1.92442,1.4682 2.24848,1.99812 -0.19311,-0.57592 -0.56732,-1.6128 -1.44388,-2.71822 -0.62575,-0.78911 -1.46647,-2.06647 -2.53663,-2.85214 -1.27528,-0.93627 -2.69843,-2.19648 -4.28815,-2.8662 -0.98885,-0.41658 -2.24548,-1.23914 -3.41727,-1.59811 -2.87657,-0.88121 -5.61102,-1.58246 -9.24402,-2.0046 -3.43498,-0.39913 -7.78163,-0.93367 -11.29835,-0.89735 -0.12203,0.001 -0.24424,0.003 -0.36663,0.005 -3.62086,0.0519 -8.29298,0.61115 -11.8461,1.12441 -3.62258,0.5233 -6.54204,1.50557 -9.38537,2.45693 -1.10746,0.37055 -2.4353,1.22472 -3.37108,1.64065 -1.62494,0.72224 -2.75555,1.66679 -4.03455,2.65099 -1.04655,0.80534 -1.65707,2.24134 -2.25723,3.03279 -0.84139,1.10955 -1.24261,2.1654 -1.41747,2.7334 z"
           id="path24"
           transform="translate(-546.58009,78.791545)"
           clip-path="url(#clipPath35)"
           sodipodi:nodetypes="csssssccssssscsssssccssssscc" />
        <path
           style="mix-blend-mode:normal;fill:#000000;fill-opacity:1;fill-rule:nonzero;stroke:#ffffff;stroke-width:1.292;stroke-linecap:round;stroke-linejoin:round;stroke-opacity:1;filter:url(#filter60)"
           d="m 102.62873,226.09888 c 0.21837,0.59119 0.61147,1.63901 1.62645,2.90953 0.71917,0.90024 1.67343,1.81283 2.88011,2.66136 0.63885,0.44924 1.326,0.86437 2.04583,1.23422 1.73607,0.89199 3.88794,1.6902 6.44451,2.35832 3.15978,0.82576 6.73316,1.3998 10.52375,1.74639 2.77174,0.25344 5.543,0.37487 8.21345,0.40382 1.03453,0.0112 2.07172,0.008 3.10774,-0.0105 3.80268,-0.0675 7.55355,-0.33754 11.05616,-0.82447 3.61058,-0.50195 6.89851,-1.22612 9.69476,-2.17075 0.18263,-0.0617 0.36305,-0.1243 0.54123,-0.1878 2.50252,-0.89183 4.82056,-2.11237 6.51802,-3.52561 0.94359,-0.78561 1.6151,-1.56242 2.06492,-2.2946 0.63371,-1.03151 0.74175,-1.832 0.76927,-2.29791 -0.27946,0.40619 -0.77594,0.89664 -1.67451,1.38662 -0.63117,0.34418 -1.42595,0.67135 -2.41953,0.98728 -1.84319,0.58607 -3.98976,1.02107 -6.42445,1.47239 -0.16947,0.0314 -0.34092,0.0627 -0.51435,0.094 -2.66528,0.48001 -5.74678,0.9266 -9.18723,1.27047 -3.33185,0.33301 -6.89061,0.55814 -10.52391,0.6262 -0.98784,0.0185 -1.97654,0.0253 -2.96263,0.0197 -2.54936,-0.0146 -5.17908,-0.11853 -7.80849,-0.31818 -3.6162,-0.27458 -6.92286,-0.70577 -9.89494,-1.23993 -2.40547,-0.43232 -4.36461,-0.8899 -6.04479,-1.31771 -0.70208,-0.17876 -1.35634,-0.34389 -2.02406,-0.52251 -1.24448,-0.33289 -2.31304,-0.65483 -3.26912,-1.01993 -1.3453,-0.51373 -2.22471,-1.029 -2.73819,-1.44035 z"
           id="path59"
           clip-path="url(#clipPath34)" />
      </g>
    </g>
  </g>
</svg>
