<?xml version="1.0" encoding="UTF-8" standalone="no"?>
<svg
   viewBox="0 0 124.95208 156.00426"
   width="124.95208"
   height="156.00426"
   version="1.1"
   id="svg7"
   sodipodi:docname="gnome.svg"
   xmlns:inkscape="http://www.inkscape.org/namespaces/inkscape"
   xmlns:sodipodi="http://sodipodi.sourceforge.net/DTD/sodipodi-0.dtd"
   xmlns="http://www.w3.org/2000/svg"
   xmlns:svg="http://www.w3.org/2000/svg">
  <defs
     id="defs7" />
  <sodipodi:namedview
     id="namedview7"
     pagecolor="#ffffff"
     bordercolor="#000000"
     borderopacity="0.25"
     inkscape:showpageshadow="2"
     inkscape:pageopacity="0.0"
     inkscape:pagecheckerboard="0"
     inkscape:deskcolor="#d1d1d1">
    <inkscape:page
       x="0"
       y="0"
       width="124.95208"
       height="156.00426"
       id="page2"
       margin="0"
       bleed="0" />
  </sodipodi:namedview>
  <g
     transform="translate(252.13784,-2.0481857)"
     id="g7"
     style="fill:#494949;fill-opacity:1;stroke:#ffffff;stroke-width:2.3;stroke-dasharray:none;stroke-opacity:1">
    <g
       transform="matrix(0.53845513,0,0,0.53845513,-260.51955,13.25883)"
       id="g6"
       style="fill:#494949;fill-opacity:1;stroke:#ffffff;stroke-width:4.27148;stroke-dasharray:none;stroke-opacity:1">
      <g
         transform="matrix(2.3869311,0,0,2.4293614,16.766064,-19.605335)"
         style="fill:#494949;fill-opacity:1;fill-rule:nonzero;stroke:#ffffff;stroke-width:1.77383;stroke-dasharray:none;stroke-opacity:1"
         id="g5">
        <path
           d="M 86.068,0 C 61.466,0 56.851,35.041 70.691,35.041 84.529,35.041 110.671,0 86.068,0 Z"
           id="path1"
           style="fill:#494949;fill-opacity:1;stroke:#ffffff;stroke-width:1.77383;stroke-dasharray:none;stroke-opacity:1" />
        <path
           d="M 45.217,30.699 C 52.586,31.149 60.671,2.577 46.821,4.374 32.976,6.171 37.845,30.249 45.217,30.699 Z"
           id="path2"
           style="fill:#494949;fill-opacity:1;stroke:#ffffff;stroke-width:1.77383;stroke-dasharray:none;stroke-opacity:1" />
        <path
           d="M 11.445,48.453 C 16.686,46.146 12.12,23.581 3.208,29.735 -5.7,35.89 6.204,50.759 11.445,48.453 Z"
           id="path3"
           style="fill:#494949;fill-opacity:1;stroke:#ffffff;stroke-width:1.77383;stroke-dasharray:none;stroke-opacity:1" />
        <path
           d="M 26.212,36.642 C 32.451,35.37 32.793,9.778 21.667,14.369 10.539,18.961 19.978,37.916 26.212,36.642 Z"
           id="path4"
           style="fill:#494949;fill-opacity:1;stroke:#ffffff;stroke-width:1.77383;stroke-dasharray:none;stroke-opacity:1" />
        <path
           d="m 58.791,93.913 c 1.107,8.454 -6.202,12.629 -13.36,7.179 C 22.644,83.743 83.16,75.088 79.171,51.386 75.86,31.712 15.495,37.769 8.621,68.553 3.968,89.374 27.774,118.26 52.614,118.26 c 12.22,0 26.315,-11.034 28.952,-25.012 C 83.58,82.589 57.867,86.86 58.791,93.913 Z"
           id="path5"
           style="fill:#494949;fill-opacity:1;stroke:#ffffff;stroke-width:1.77383;stroke-dasharray:none;stroke-opacity:1" />
      </g>
    </g>
  </g>
</svg>
