<?xml version="1.0" encoding="UTF-8" standalone="no"?>
<svg
   width="141.27856"
   height="251.11052"
   viewBox="0 0 63.795122 113.39036"
   version="1.1"
   id="svg1"
   xmlns="http://www.w3.org/2000/svg"
   xmlns:svg="http://www.w3.org/2000/svg">
  <defs
     id="defs1">
    <linearGradient
       id="swatch7">
      <stop
         style="stop-color:#000000;stop-opacity:1;"
         offset="0"
         id="stop7" />
    </linearGradient>
  </defs>
  <g
     id="layer1"
     transform="translate(220.70101,-32.483895)"
     style="fill:#000000;fill-opacity:1;stroke:#ffffff;stroke-opacity:1">
    <g
       id="g71"
       transform="matrix(0.53845513,0,0,0.53845513,-260.51955,13.25883)"
       style="fill:#000000;fill-opacity:1;stroke:#ffffff;stroke-opacity:1">
      <path
         d="m 146.19942,23.341737 c 0.53571,0.67852 0.87693,1.004896 1.11435,1.418879 4.29847,7.584497 8.53195,15.22482 12.89451,22.757997 2.51122,4.335978 5.18405,8.540652 7.86443,12.73169 2.59197,4.06049 5.329,7.985168 7.92332,12.044797 3.00126,4.695204 6.04251,9.365288 8.83086,14.237106 3.57125,6.242051 7.16981,12.496676 10.2594,19.076384 2.62754,5.59382 4.7265,11.5694 6.73415,17.53598 1.42091,4.22345 2.37383,8.68462 3.39084,13.08823 0.47088,2.04104 0.60323,4.19469 0.87783,6.29692 0.33943,2.57322 0.91438,5.1473 0.94985,7.72771 0.0946,6.721 0.58343,13.46368 -0.39885,20.15505 -1.08202,7.37824 -2.89331,14.44226 -5.58729,21.25612 -2.72335,6.88397 -6.02362,13.24218 -10.06306,19.12416 -3.66039,5.33089 -7.95806,9.7344 -12.60677,13.77158 -3.4128,2.96208 -7.0218,5.47852 -10.86263,7.47822 -3.45584,1.7971 -7.01658,3.23853 -10.68221,4.45762 -8.27598,2.74778 -16.66819,3.35104 -25.11927,2.6416 -5.09419,-0.42622 -10.24879,-1.17141 -15.10061,-3.35738 -3.98965,-1.79711 -8.00793,-3.57168 -11.82157,-5.81798 -3.01108,-1.77189 -5.896844,-3.99308 -8.539426,-6.4672 -3.466378,-3.24488 -6.86856,-6.67869 -9.869837,-10.50696 -2.687858,-3.42856 -5.016398,-7.34047 -7.104819,-11.33256 -2.201675,-4.21358 -4.142173,-8.66939 -5.808504,-13.2233 -1.800772,-4.91593 -2.963462,-10.09286 -3.911066,-15.39584 -1.474569,-8.25079 -0.998112,-16.50864 -0.696853,-24.74139 0.172866,-4.72676 1.219324,-9.45718 2.223561,-14.07594 1.056986,-4.87086 2.336091,-9.71111 3.886111,-14.39021 1.553168,-4.68618 3.35618,-9.29506 5.421187,-13.6887 2.591258,-5.51372 5.44982,-10.863502 8.396717,-16.120633 2.675075,-4.775407 5.566052,-9.3843 8.469994,-13.966988 2.339069,-3.691385 4.890345,-7.191988 7.258865,-10.858141 2.39499,-3.705768 4.69931,-7.496245 7.0165,-11.274054 2.45161,-3.998433 4.92283,-7.981516 7.29063,-12.051023 3.00424,-5.157178 5.89675,-10.407975 8.87389,-15.588558 0.42497,-0.740789 1.04421,-1.327945 1.57199,-1.986172 0.10529,0.07515 0.20978,0.141716 0.31691,0.2115 0.0271,0.567939 0.0631,1.136198 0.0631,1.704352 0.003,8.450574 0.0359,16.90029 -0.045,25.350865 -0.018,1.238942 -0.43666,2.615522 -1.00189,3.677962 -2.28775,4.317082 -4.62611,8.600881 -7.0996,12.770448 -2.34438,3.950658 -4.87675,7.74382 -7.32603,11.605369 -2.01828,3.180024 -4.0289,6.363588 -6.06069,9.531921 -1.41037,2.197673 -2.89098,4.332425 -4.26895,6.559849 -1.9268,3.119672 -3.861985,6.242053 -5.659774,9.467063 -2.169182,3.88946 -4.303603,7.81853 -6.251652,11.86561 -1.394533,2.89466 -2.49313,5.99814 -3.658164,9.0403 -0.646436,1.68814 -1.241198,3.41505 -1.71162,5.18059 -0.83461,3.13225 -1.502479,6.32579 -2.336104,9.45804 -2.347357,8.79994 -1.849829,17.85376 -1.324302,26.79777 0.2665,4.54135 1.644459,9.03495 2.798962,13.44478 1.617274,6.17453 4.392019,11.65046 7.52239,16.92649 2.136675,3.60399 4.561917,6.86056 7.304874,9.74341 2.2576,2.36795 4.70993,4.54769 7.28533,6.39247 2.93105,2.09954 5.98291,4.09924 9.18351,5.47862 3.41498,1.47384 7.02407,2.56505 10.62558,3.10701 4.28705,0.64524 8.65564,0.50674 12.98654,0.75046 4.02053,0.22545 7.92033,-0.73435 11.82311,-1.64939 4.95445,-1.16143 9.48171,-3.70942 13.882,-6.50229 5.26183,-3.33753 9.68409,-8.06526 13.55662,-13.39261 3.95941,-5.44705 7.28309,-11.5693 9.39869,-18.29394 2.23113,-7.09289 4.09077,-14.4325 3.80833,-22.22763 -0.15305,-4.21359 0.036,-8.45423 -0.28541,-12.64173 -0.23948,-3.08458 -0.97397,-6.13405 -1.65805,-9.14744 -0.8022,-3.54011 -1.62331,-7.0929 -2.73468,-10.50428 -1.10616,-3.39883 -2.51878,-6.65894 -3.90727,-9.91637 -1.23076,-2.88554 -2.50906,-5.75143 -3.94581,-8.49203 a 125.14147,149.22521 0 0 0 -5.56615,-9.76692 c -2.97408,-4.781623 -6.1203,-9.409418 -9.12679,-14.159593 -3.52005,-5.561496 -7.03244,-11.130082 -10.43461,-16.794969 -2.93627,-4.884373 -5.73523,-9.887597 -8.5341,-14.888028 -0.44927,-0.801984 -0.80761,-1.858307 -0.81572,-2.79825 -0.0631,-9.14391 -0.0361,-18.287821 -0.0361,-27.430765 0,-0.304904 0.0631,-0.613029 0.15576,-1.425214 z"
         fill="#000000"
         stroke-width="8.24492"
         id="path1-5"
         style="fill:#ffffff;fill-opacity:1;stroke:#000000;stroke-opacity:1;stroke-width:8.24524499;stroke-dasharray:none" />
    </g>
  </g>
</svg>
