<?xml version="1.0" encoding="UTF-8" standalone="no"?>
<svg
   width="48"
   height="48"
   version="1.1"
   id="svg11"
   sodipodi:docname="vesktop.svg"
   xmlns:inkscape="http://www.inkscape.org/namespaces/inkscape"
   xmlns:sodipodi="http://sodipodi.sourceforge.net/DTD/sodipodi-0.dtd"
   xmlns="http://www.w3.org/2000/svg"
   xmlns:svg="http://www.w3.org/2000/svg">
  <defs
     id="defs11" />
  <sodipodi:namedview
     id="namedview11"
     pagecolor="#ffffff"
     bordercolor="#000000"
     borderopacity="0.25"
     inkscape:showpageshadow="2"
     inkscape:pageopacity="0.0"
     inkscape:pagecheckerboard="0"
     inkscape:deskcolor="#d1d1d1">
    <inkscape:page
       x="0"
       y="0"
       width="48"
       height="48"
       id="page2"
       margin="0"
       bleed="0" />
  </sodipodi:namedview>
  <rect
     x="4"
     y="5"
     width="40"
     height="40"
     ry="8"
     style="opacity:0.2"
     id="rect1" />
  <path
     d="M 4.0605469,37 C 4.5497376,40.956631 7.9067844,44 12,44 h 24 c 4.093216,0 7.450262,-3.043369 7.939453,-7 z"
     style="fill:#847888;fill-opacity:1"
     id="path1" />
  <path
     d="M 12,4 C 8.2590921,4 5.1337268,6.5420224 4.25,10 h 39.5 C 42.866273,6.5420224 39.740908,4 36,4 Z"
     style="fill:#847888;fill-opacity:1"
     id="path2" />
  <path
     d="M 4.25,10 C 4.0867411,10.638824 4,11.308908 4,12 v 4 h 40 v -4 c 0,-0.691092 -0.08674,-1.361176 -0.25,-2 z"
     style="fill:#847888;fill-opacity:1"
     id="path3" />
  <rect
     x="4"
     y="16"
     width="40"
     height="7"
     style="fill:#847888;fill-opacity:1"
     id="rect3" />
  <rect
     x="4"
     y="23"
     width="40"
     height="7"
     style="fill:#847888;fill-opacity:1"
     id="rect4" />
  <path
     d="m 4,30 v 6 c 0,0.338784 0.020058,0.67252 0.060547,1 H 43.939453 C 43.979942,36.67252 44,36.338784 44,36 v -6 z"
     style="fill:#847888;fill-opacity:1"
     id="path4" />
  <path
     d="M 12,4 C 7.568,4 4,7.568 4,12 v 1 C 4,8.568 7.568,5 12,5 h 24 c 4.432,0 8,3.568 8,8 V 12 C 44,7.568 40.432,4 36,4 Z"
     style="opacity:0.2;fill:#ffffff"
     id="path5" />
  <path
     d="m 11,13 v 9.962301 l 0.439453,1.056549 5,4.98115 h 2.121094 l 5,-4.98115 L 24,22.962301 V 13 h -3 v 9.343548 L 17.5,25.830354 14,22.343548 V 13 Z"
     style="opacity:0.1;fill:none;stroke:#000000;stroke-width:4;stroke-linecap:square"
     id="path6" />
  <path
     d="m 11,12 v 9.962301 l 0.439453,1.056549 5,4.98115 h 2.121094 l 5,-4.98115 L 24,21.962301 V 12 h -3 v 9.343548 L 17.5,24.830354 14,21.343548 V 12 Z"
     style="fill:none;stroke:#555555;stroke-width:4;stroke-linecap:square"
     id="path7" />
  <path
     d="m 11,12 v 9.962301 l 0.439453,1.056549 5,4.98115 h 2.121094 l 5,-4.98115 L 24,21.962301 V 12 h -3 v 9.343548 L 17.5,24.830354 14,21.343548 V 12 Z"
     style="fill:#ffffff"
     id="path8" />
  <path
     d="m 24,20 v 3 h -3 v 10 h 3 v 3 h 10 v -3 h 3 v -3 h -5 v 3 H 26 V 23 h 6 v 3 h 5 v -3 h -3 v -3 z"
     style="opacity:0.1;fill:none;stroke:#000000;stroke-width:4"
     id="path9" />
  <path
     d="m 24,19 v 3 h -3 v 10 h 3 v 3 h 10 v -3 h 3 v -3 h -5 v 3 H 26 V 22 h 6 v 3 h 5 v -3 h -3 v -3 z"
     style="fill:none;stroke:#555555;stroke-width:4"
     id="path10" />
  <path
     d="m 24,19 v 3 h -3 v 10 h 3 v 3 h 10 v -3 h 3 v -3 h -5 v 3 H 26 V 22 h 6 v 3 h 5 v -3 h -3 v -3 z"
     style="fill:#ecb2c3"
     id="path11" />
</svg>
