<?xml version="1.0" encoding="UTF-8" standalone="no"?>
<svg
   width="273.85571"
   height="342.58499"
   viewBox="0 0 123.66108 154.69617"
   version="1.1"
   id="svg1"
   sodipodi:docname="niri.svg"
   inkscape:version="1.4.2 (ebf0e940d0, 2025-05-08)"
   xmlns:inkscape="http://www.inkscape.org/namespaces/inkscape"
   xmlns:sodipodi="http://sodipodi.sourceforge.net/DTD/sodipodi-0.dtd"
   xmlns="http://www.w3.org/2000/svg"
   xmlns:svg="http://www.w3.org/2000/svg">
  <sodipodi:namedview
     id="namedview1"
     borderopacity="1"
     inkscape:showpageshadow="0"
     inkscape:pageopacity="0"
     inkscape:pagecheckerboard="1"
     inkscape:zoom="1.5347643"
     inkscape:cx="193.84084"
     inkscape:cy="116.95607"
     inkscape:window-width="1653"
     inkscape:window-height="1048"
     inkscape:window-x="0"
     inkscape:window-y="0"
     inkscape:window-maximized="0"
     inkscape:current-layer="g71"
     pagecolor="#505050"
     bordercolor="#ffffff"
     inkscape:deskcolor="#505050">
    <inkscape:page
       x="0"
       y="0"
       width="123.66108"
       height="154.69617"
       id="page1"
       margin="0"
       bleed="0" />
  </sodipodi:namedview>
  <defs
     id="defs1">
    <linearGradient
       id="swatch7"
       inkscape:swatch="solid">
      <stop
         style="stop-color:#000000;stop-opacity:1;"
         offset="0"
         id="stop7" />
    </linearGradient>
  </defs>
  <g
     id="layer1"
     transform="translate(251.49518,-2.7022357)">
    <g
       id="g71"
       transform="matrix(0.53845513,0,0,0.53845513,-260.51955,13.25883)"
       inkscape:label="ICON">
      <g
         transform="matrix(2.3869311,0,0,2.4293614,16.766064,-19.605335)"
         style="fill:#ffffff;fill-opacity:1;fill-rule:nonzero;stroke:none;stroke-miterlimit:4"
         id="g3771">
        <g
           style="fill:#ffffff;fill-opacity:1"
           id="g3773">
          <path
             d="M 86.068,0 C 61.466,0 56.851,35.041 70.691,35.041 84.529,35.041 110.671,0 86.068,0 Z"
             style="fill:#ffffff;fill-opacity:1"
             id="path3775" />
          <path
             d="M 45.217,30.699 C 52.586,31.149 60.671,2.577 46.821,4.374 32.976,6.171 37.845,30.249 45.217,30.699 Z"
             style="fill:#ffffff;fill-opacity:1"
             id="path3777" />
          <path
             d="M 11.445,48.453 C 16.686,46.146 12.12,23.581 3.208,29.735 -5.7,35.89 6.204,50.759 11.445,48.453 Z"
             style="fill:#ffffff;fill-opacity:1"
             id="path3779" />
          <path
             d="M 26.212,36.642 C 32.451,35.37 32.793,9.778 21.667,14.369 10.539,18.961 19.978,37.916 26.212,36.642 Z"
             style="fill:#ffffff;fill-opacity:1"
             id="path3781" />
          <path
             d="m 58.791,93.913 c 1.107,8.454 -6.202,12.629 -13.36,7.179 C 22.644,83.743 83.16,75.088 79.171,51.386 75.86,31.712 15.495,37.769 8.621,68.553 3.968,89.374 27.774,118.26 52.614,118.26 c 12.22,0 26.315,-11.034 28.952,-25.012 C 83.58,82.589 57.867,86.86 58.791,93.913 Z"
             style="fill:#ffffff;fill-opacity:1"
             id="path3783" />
        </g>
      </g>
    </g>
  </g>
</svg>
